<svg width="15" height="15" viewBox="0 0 15 15" fill="none" xmlns="http://www.w3.org/2000/svg">
<g clip-path="url(#clip0_132_252)">
<path d="M10.625 6.25H11.875C13.125 6.25 13.75 5.625 13.75 4.375V3.125C13.75 1.875 13.125 1.25 11.875 1.25H10.625C9.375 1.25 8.75 1.875 8.75 3.125V4.375C8.75 5.625 9.375 6.25 10.625 6.25ZM3.125 13.75H4.375C5.625 13.75 6.25 13.125 6.25 11.875V10.625C6.25 9.375 5.625 8.75 4.375 8.75H3.125C1.875 8.75 1.25 9.375 1.25 10.625V11.875C1.25 13.125 1.875 13.75 3.125 13.75ZM3.75 6.25C4.41304 6.25 5.04893 5.98661 5.51777 5.51777C5.98661 5.04893 6.25 4.41304 6.25 3.75C6.25 3.08696 5.98661 2.45107 5.51777 1.98223C5.04893 1.51339 4.41304 1.25 3.75 1.25C3.08696 1.25 2.45107 1.51339 1.98223 1.98223C1.51339 2.45107 1.25 3.08696 1.25 3.75C1.25 4.41304 1.51339 5.04893 1.98223 5.51777C2.45107 5.98661 3.08696 6.25 3.75 6.25ZM11.25 13.75C11.913 13.75 12.5489 13.4866 13.0178 13.0178C13.4866 12.5489 13.75 11.913 13.75 11.25C13.75 10.587 13.4866 9.95107 13.0178 9.48223C12.5489 9.01339 11.913 8.75 11.25 8.75C10.587 8.75 9.95107 9.01339 9.48223 9.48223C9.01339 9.95107 8.75 10.587 8.75 11.25C8.75 11.913 9.01339 12.5489 9.48223 13.0178C9.95107 13.4866 10.587 13.75 11.25 13.75Z" stroke="white" stroke-miterlimit="10" stroke-linecap="round" stroke-linejoin="round"/>
</g>
<defs>
<clipPath id="clip0_132_252">
<rect width="15" height="15" fill="white"/>
</clipPath>
</defs>
</svg>
