<svg width="15" height="15" viewBox="0 0 15 15" fill="none" xmlns="http://www.w3.org/2000/svg">
<g clip-path="url(#clip0_132_293)">
<path d="M4.96251 9.06879C4.57501 8.92504 4.23126 8.64379 4.01251 8.24379C3.51251 7.33129 3.81876 6.14379 4.70626 5.59379L6.16876 4.68754C7.05001 4.13754 8.18751 4.43754 8.68751 5.34379C9.18751 6.25629 8.88126 7.44379 7.99376 7.99379L7.80001 8.13129" stroke="white" stroke-linecap="round" stroke-linejoin="round"/>
<path d="M10.0687 5.90625C10.4562 6.05 10.8 6.33125 11.0187 6.73125C11.5187 7.64375 11.2125 8.83125 10.325 9.38125L8.8625 10.2875C7.98125 10.8375 6.84375 10.5375 6.34375 9.63125C5.84375 8.71875 6.15 7.53125 7.0375 6.98125L7.23125 6.84375" stroke="white" stroke-linecap="round" stroke-linejoin="round"/>
<path d="M7.5 13.75C10.9519 13.75 13.75 10.9519 13.75 7.5C13.75 4.04813 10.9519 1.25 7.5 1.25C4.04813 1.25 1.25 4.04813 1.25 7.5C1.25 10.9519 4.04813 13.75 7.5 13.75Z" stroke="white" stroke-linecap="round" stroke-linejoin="round"/>
</g>
<defs>
<clipPath id="clip0_132_293">
<rect width="15" height="15" fill="white"/>
</clipPath>
</defs>
</svg>
