<svg width="13" height="15" viewBox="0 0 13 15" fill="none" xmlns="http://www.w3.org/2000/svg">
<path d="M11.8687 13.6396C11.8687 11.2209 9.46248 9.26465 6.49998 9.26465C3.53748 9.26465 1.13123 11.2209 1.13123 13.6396M6.49998 7.38965C7.32878 7.38965 8.12363 7.06041 8.70968 6.47436C9.29574 5.88831 9.62498 5.09345 9.62498 4.26465C9.62498 3.43585 9.29574 2.64099 8.70968 2.05494C8.12363 1.46889 7.32878 1.13965 6.49998 1.13965C5.67117 1.13965 4.87632 1.46889 4.29027 2.05494C3.70422 2.64099 3.37498 3.43585 3.37498 4.26465C3.37498 5.09345 3.70422 5.88831 4.29027 6.47436C4.87632 7.06041 5.67117 7.38965 6.49998 7.38965Z" stroke="white" stroke-width="1.5" stroke-linecap="round" stroke-linejoin="round"/>
</svg>
